<?xml version="1.0" standalone="no"?>
<!DOCTYPE svg PUBLIC "-//W3C//DTD SVG 20010904//EN"
 "http://www.w3.org/TR/2001/REC-SVG-20010904/DTD/svg10.dtd">
<svg version="1.0" xmlns="http://www.w3.org/2000/svg"
 width="1024.000000pt" height="1024.000000pt" viewBox="0 0 1024.000000 1024.000000"
 preserveAspectRatio="xMidYMid meet">

<g transform="translate(0.000000,1024.000000) scale(0.100000,-0.100000)"
fill="#000000" stroke="none">
<path d="M3423 8825 c-181 -49 -314 -197 -344 -383 -14 -87 -1 -179 36 -261
29 -61 122 -163 183 -198 61 -36 155 -63 220 -63 l57 0 85 -161 c47 -88 86
-166 88 -173 1 -6 -14 -18 -35 -25 -21 -7 -110 -49 -198 -92 -246 -121 -446
-252 -606 -396 -284 -258 -468 -553 -558 -895 -53 -201 -54 -226 -55 -893 l-1
-620 -117 -3 -118 -3 0 -109 0 -109 118 -3 117 -3 0 -465 c0 -455 0 -467 23
-549 75 -274 256 -494 507 -617 107 -52 176 -71 310 -85 65 -6 772 -9 2025 -7
l1925 4 85 22 c326 86 580 338 682 674 21 70 22 95 27 548 l6 475 118 3 118 3
-3 112 -3 112 -115 0 -115 0 -6 665 c-6 743 -5 729 -85 969 -162 486 -540 889
-1094 1166 -52 26 -97 49 -99 51 -2 1 49 94 113 206 l117 203 73 -3 c136 -7
247 33 344 123 157 146 196 360 100 550 -29 55 -122 150 -183 185 -207 119
-478 54 -610 -146 -58 -88 -77 -160 -73 -279 3 -87 8 -109 34 -165 17 -36 50
-86 73 -112 22 -25 41 -49 41 -52 0 -5 -206 -371 -229 -405 -7 -11 -27 -7
-111 23 -499 177 -1126 235 -1700 155 -164 -22 -425 -78 -544 -116 l-79 -25
-16 21 c-9 12 -49 86 -90 165 l-74 143 65 64 c119 118 168 270 134 421 -58
259 -314 420 -563 353z m186 -295 c127 -64 127 -240 0 -305 -78 -41 -190 -1
-229 81 -70 144 86 297 229 224z m3426 -15 c51 -39 79 -103 70 -163 -9 -58
-70 -124 -129 -141 -116 -31 -231 78 -211 201 8 46 55 104 100 125 48 21 127
12 170 -22z m-580 -1468 c190 -47 335 -109 478 -203 296 -197 498 -519 551
-876 14 -91 16 -261 16 -1259 0 -1254 2 -1198 -56 -1318 -38 -79 -160 -199
-244 -239 -133 -65 -15 -62 -2105 -62 -1228 0 -1923 4 -1965 10 -98 15 -219
79 -294 154 -67 67 -106 126 -139 214 l-22 57 -3 1130 c-3 1177 -1 1272 39
1428 68 268 214 500 425 676 190 158 409 257 659 297 62 9 359 12 1335 10
1145 -2 1261 -4 1325 -19z"/>
<circle cx="3850" cy="5600" r="700"/>
<circle cx="6350" cy="5600" r="700"/>

<path d="M1660 5383 c-91 -59 -213 -229 -280 -391 -61 -146 -91 -289 -97 -463
-8 -228 19 -384 101 -578 67 -160 197 -337 282 -387 59 -35 121 -30 166 12 60
57 58 21 58 891 0 493 -4 812 -10 833 -16 57 -69 102 -127 107 -40 4 -55 0
-93 -24z"/>
<path d="M8360 5392 c-19 -11 -43 -36 -54 -58 -21 -38 -21 -55 -24 -844 -3
-885 -5 -855 57 -914 38 -37 103 -45 155 -21 42 20 129 111 187 197 67 99 138
258 171 385 40 155 50 392 24 555 -42 252 -165 509 -311 647 -79 75 -136 89
-205 53z"/>
</g>
</svg>
